# xmcd
#
# Track frame offsets:
#	150
#	16678
#	30478
#	47656
#	68063
#	84058
#	104278
#	127273
#	148769
#	174018
#	188593
#	203533
#	221093
#	236153
#
# Disc length: 3428 seconds
# Revision: 0
# Processed by: cddbd v1.5.2PL0 Copyright (c) Steve Scherf et al.
# Submitted via: dBpowerAMP V12.0
#
DISCID=b20d620e
DTITLE=Mark Heyes and Phil Salazar - Just Wait And See
DYEAR=2016
DGENRE=Americana
TTITLE0=What Did I Do
TTITLE1=Backtrackin'
TTITLE2=Take Me Back to Durango
TTITLE3=Tribute to Django
TTITLE4=Just Wait and See
TTITLE5=12 Days Gone
TTITLE6=Celtic Air: Kilmainham Gaol
TTITLE7=Where Would We Be (Without 4th of July)
TTITLE8=El Cumbanchero
TTITLE9=Long Hard Road (The Sharecropper's Dream)
TTITLE10=There Is A Time
TTITLE11=Bayou Bound
TTITLE12=Crystal Blue
TTITLE13=Icelandic Hymn/Lonesome Fiddle Blues
EXTD=
EXTT0=
EXTT1=
EXTT2=
EXTT3=
EXTT4=
EXTT5=
EXTT6=
EXTT7=
EXTT8=
EXTT9=
EXTT10=
EXTT11=
EXTT12=
EXTT13=
PLAYORDER=
